<?xml version="1.0" encoding="UTF-8" standalone="no"?>
<!DOCTYPE svg PUBLIC "-//W3C//DTD SVG 1.1//EN" "http://www.w3.org/Graphics/SVG/1.1/DTD/svg11.dtd">
<svg xmlns="http://www.w3.org/2000/svg" xmlns:xlink="http://www.w3.org/1999/xlink" version="1.1" width="269.209pt" height="269.21pt" viewBox="0 0 269.209 269.21">
<g enable-background="new">
<g id="Layer-1" data-name="Слой 1">
<clipPath id="cp0">
<path transform="matrix(1,0,0,-1,0,269.21)" d="M 0 269.21 L 269.209 269.21 L 269.209 0 L 0 0 Z "/>
</clipPath>
<g clip-path="url(#cp0)">
<path transform="matrix(1,0,0,-1,33.6509,269.2096)" d="M 0 0 L 201.908 0 C 220.416 0 235.558 15.142 235.558 33.65 L 235.558 235.559 C 235.558 254.067 220.416 269.209 201.908 269.209 L 0 269.209 C -18.508 269.209 -33.651 254.067 -33.651 235.559 L -33.651 33.65 C -33.651 15.142 -18.508 0 0 0 " fill="#db2a30"/>
<path transform="matrix(1,0,0,-1,190.9082,79.50749)" d="M 0 0 C 1.378 0 2.9 -.523 3.945 -1.474 C 5.087 -2.566 5.704 -4.278 5.704 -5.799 C 5.704 -7.32 5.135 -9.031 3.898 -10.173 C 3.138 -10.886 1.902 -11.646 0 -11.646 C -1.806 -11.646 -3.042 -10.933 -3.802 -10.267 C -4.942 -9.269 -5.703 -7.7 -5.703 -5.799 C -5.703 -3.898 -5.038 -2.472 -3.755 -1.379 C -2.709 -.428 -1.521 0 0 0 M -5.134 -13.452 C -2.852 -16.542 .049 -16.779 1.475 -16.779 C 4.516 -16.779 6.893 -15.591 8.462 -14.117 C 9.649 -12.976 11.694 -10.458 11.694 -5.799 C 11.694 -1.711 10.125 .856 8.604 2.376 C 6.275 4.706 3.375 5.134 1.569 5.134 C -2.233 5.134 -4.229 3.089 -5.134 1.806 L -5.134 4.468 L -10.933 4.468 L -10.933 -26.999 L -5.134 -26.999 Z M 13.194 -26.999 L 19.754 -26.999 L 36.343 4.468 L 29.783 4.468 L 24.079 -7.225 L 17.709 4.468 L 10.96 4.468 L 20.752 -13.024 Z M -22.263 -13.024 C -22.263 -15.116 -20.646 -16.731 -18.556 -16.731 C -16.464 -16.731 -14.848 -15.116 -14.848 -13.024 C -14.848 -10.933 -16.464 -9.317 -18.556 -9.317 C -20.646 -9.317 -22.263 -10.933 -22.263 -13.024 M -127.067 -80.335 L -118.776 -80.335 C -113.94 -80.335 -108.24 -80.335 -103.404 -82.58 C -96.15 -85.861 -94.941 -92.08 -94.941 -95.707 C -94.941 -100.197 -96.495 -105.725 -102.022 -109.007 C -107.031 -111.943 -113.25 -112.116 -117.395 -112.116 L -127.067 -112.116 Z M -127.067 -33.527 L -120.504 -33.527 C -111.349 -33.527 -103.231 -37.5 -103.231 -48.035 C -103.231 -62.717 -117.222 -63.063 -120.676 -63.063 L -127.067 -63.063 Z M -149.521 -15.218 L -149.521 -130.425 L -110.831 -130.425 C -100.813 -130.425 -90.277 -128.697 -81.641 -121.098 C -73.696 -114.016 -71.795 -104.516 -71.795 -97.78 C -71.795 -91.734 -73.177 -82.753 -80.086 -76.189 C -83.022 -73.426 -87.513 -70.144 -95.113 -68.935 C -92.004 -67.208 -82.159 -61.162 -82.159 -46.308 C -82.159 -36.636 -86.132 -27.654 -92.868 -22.473 C -102.195 -15.218 -114.631 -15.218 -121.022 -15.218 Z M -66.269 -55.635 L -66.269 -130.425 L -45.196 -130.425 L -10.651 -84.308 L -10.651 -130.425 L 10.421 -130.425 L 10.421 -55.635 L -10.651 -55.635 L -45.196 -101.753 L -45.196 -55.635 Z M 7.602 -42.652 C 26.979 -42.652 42.69 -26.943 42.69 -7.563 C 42.69 11.815 26.979 27.525 7.602 27.525 C -11.777 27.525 -27.487 11.815 -27.487 -7.563 C -27.487 -26.943 -11.777 -42.652 7.602 -42.652 " fill="#ffffff" fill-rule="evenodd"/>
</g>
</g>
</g>
</svg>
